<svg width="351" height="110" viewBox="0 0 351 110" fill="none" xmlns="http://www.w3.org/2000/svg">
<path d="M118.53 0H135.307V17.6162H118.53V0ZM118.53 25.2367H135.307V108.602H118.53V25.2367Z" fill="#FCFAF7"/>
<path d="M149.64 0H166.417V57.6985L224.32 12.6594H247.563L186.77 59.0303L249.205 108.602H224.862L166.405 62.7611V108.602H149.628V0H149.634H149.64Z" fill="#FCFAF7"/>
<path d="M0 108.608V0.000335693H60.2447C100.83 0.000335693 105.209 24.465 105.209 34.9789C105.209 45.4934 100.83 69.9639 60.2325 69.9639H16.7763V108.614H0V108.608ZM16.7763 53.8388H57.2156C78.2316 53.8388 87.1979 48.1983 87.1979 34.9789C87.1979 21.7594 78.2316 16.1197 57.2156 16.1197H16.7763V53.8326V53.8388Z" fill="#FCFAF7"/>
<path d="M294.216 110C279.331 110 267.469 107.867 260.814 103.989C253.375 99.6563 249.762 92.9493 249.762 83.4844C249.762 59.3557 274.866 56.2026 316.449 50.9867C321.996 50.291 327.678 49.5783 333.657 48.7707C333.657 33.4233 324.983 27.9837 300.512 27.9837C280.255 27.9837 271.222 33.8187 271.222 46.8964H254.305C254.305 25.0367 271.581 11.9826 300.518 11.9826C334.953 11.9826 350.307 22.9563 350.307 47.5623V89.6429C350.307 101 350.994 108.52 351 108.597H335.744C335.744 108.556 335.312 104.46 335.744 97.8411C330.963 105.108 314.277 109.994 294.228 109.994L294.216 110ZM333.657 63.0215C308.571 65.839 290.913 68.2022 280.407 71.2665C270.656 74.1077 266.684 77.608 266.684 83.3427C266.684 95.107 281.94 96.8632 291.028 96.8632C305.87 96.8632 315.889 95.107 322.562 91.3408C330.026 87.1265 333.657 80.0899 333.657 69.8289V63.0215Z" fill="#FCFAF7"/>
</svg>
